<svg width="67" height="65" viewBox="0 0 67 65" fill="none" xmlns="http://www.w3.org/2000/svg">
	<path fill-rule="evenodd" clip-rule="evenodd"
		d="M53.5348 0.204269C53.3291 0.249502 53.0383 0.342814 52.8886 0.411613C52.5599 0.562753 19.6755 33.2368 19.4227 33.6635C18.8868 34.5679 12.6928 49.9262 12.6654 50.4184C12.5764 52.0169 13.6963 53.2198 15.2724 53.2183C15.787 53.2179 22.9953 50.7774 32.1981 47.4879C33.1634 47.1428 32.1708 48.0991 49.9016 30.4331C68.4825 11.9202 66.6291 13.8957 66.6291 12.6041C66.629 11.4325 67.0014 11.8765 60.9915 5.88043C55.3182 0.220114 55.4592 0.345252 54.5629 0.178672C54.1189 0.096195 54.0143 0.0988359 53.5348 0.204269ZM6.52623 3.80428C3.16022 4.41304 0.548107 7.09991 0.0717478 10.4436C0.0162418 10.8329 0.000868768 17.3305 0.0154255 34.273L0.035424 57.567L0.224526 58.2442C1.12357 61.4633 3.84473 63.7732 7.127 64.103C8.56472 64.2475 55.2958 64.1577 55.9156 64.0092C59.1511 63.2342 61.4687 60.917 62.1016 57.8238C62.2423 57.1363 62.243 57.065 62.2253 44.2131L62.2077 31.2935L62.0533 30.9603C61.103 28.9091 58.2514 28.8371 57.2612 30.8394L57.038 31.2906L57.0036 44.0225C56.9714 55.9756 56.9619 56.776 56.8488 57.1071C56.5787 57.8977 55.8457 58.5709 55.0153 58.791C54.4781 58.9333 7.76498 58.9333 7.22781 58.791C6.19605 58.5175 5.46311 57.6875 5.30979 56.619C5.2234 56.0167 5.21749 11.9254 5.30367 11.2593C5.42325 10.3355 5.9658 9.5877 6.80363 9.19191L7.17775 9.01517L22.1086 8.98131L37.0395 8.94746L37.3945 8.80241C39.6108 7.89686 39.7144 4.91799 37.5645 3.91486L37.1755 3.73338L22.1086 3.72221C9.5739 3.71293 6.95504 3.72675 6.52623 3.80428ZM45.8823 26.9936L31.4618 41.3492L28.3668 38.2682L25.2718 35.1871L39.6923 20.8315L54.1129 6.47585L57.2079 9.55689L60.3029 12.6379L45.8823 26.9936ZM53.4668 11.323C53.0889 11.4846 37.1863 27.3376 36.9697 27.7686C36.3817 28.9388 37.656 30.1482 38.7772 29.4841C39.1673 29.253 55.0452 13.4299 55.2044 13.1135C55.7415 12.0462 54.5784 10.8477 53.4668 11.323ZM34.1825 30.5439C33.7837 30.7229 31.3086 33.292 31.2547 33.5831C31.0416 34.7333 32.0756 35.6103 33.0764 35.128C33.5878 34.8815 35.8731 32.5221 35.9808 32.1294C36.2724 31.0659 35.1752 30.0986 34.1825 30.5439ZM26.4475 40.1498L29.2554 42.9455L24.6446 44.5525C22.1087 45.4364 20.0154 46.159 19.9926 46.1583C19.9414 46.1566 23.5502 37.354 23.6022 37.354C23.6228 37.354 24.9032 38.6121 26.4475 40.1498Z"
		fill="#2C2C2C" />
</svg>