<svg width="54" height="51" viewBox="0 0 54 51" fill="none" xmlns="http://www.w3.org/2000/svg">
<path d="M0.123291 25.5428C0.123291 39.558 11.4849 50.9195 25.5 50.9195C39.5152 50.9195 50.8768 39.558 50.8768 25.5428C50.8768 11.5276 39.5152 0.166016 25.5 0.166016C11.4849 0.166016 0.123291 11.5276 0.123291 25.5428Z" fill="#1877F2"/>
<path d="M38.1954 25.5429C38.1954 18.5643 32.4856 12.8545 25.507 12.8545C18.5284 12.8545 12.8186 18.5643 12.8186 25.5429C12.8186 31.8871 17.4181 37.121 23.4451 38.0726V29.1908H20.273V25.5429H23.4451V22.688C23.4451 19.5159 25.3484 17.7712 28.2033 17.7712C29.6307 17.7712 31.0581 18.0884 31.0581 18.0884V21.2605H29.4721C27.8861 21.2605 27.4102 22.2122 27.4102 23.1638V25.5429H30.8995L30.2651 29.1908H27.2516V38.2312C33.5958 37.2796 38.1954 31.8871 38.1954 25.5429Z" fill="white"/>
</svg>
