<svg width="55" height="51" viewBox="0 0 55 51" fill="none" xmlns="http://www.w3.org/2000/svg">
<path d="M0.369751 25.5428C0.369751 39.558 11.7313 50.9195 25.7465 50.9195C39.7617 50.9195 51.1233 39.558 51.1233 25.5428C51.1233 11.5276 39.7617 0.166016 25.7465 0.166016C11.7313 0.166016 0.369751 11.5276 0.369751 25.5428Z" fill="#F00073"/>
<path d="M25.7449 14.758C29.2342 14.758 29.71 14.758 31.1374 14.758C32.4063 14.758 33.0407 15.0752 33.5165 15.2338C34.1509 15.551 34.6267 15.7096 35.1026 16.1854C35.5784 16.6612 35.8956 17.137 36.0542 17.7715C36.2128 18.2473 36.3714 18.8817 36.53 20.1505C36.53 21.578 36.53 21.8952 36.53 25.5431C36.53 29.191 36.53 29.5082 36.53 30.9357C36.53 32.2045 36.2128 32.8389 36.0542 33.3147C35.737 33.9491 35.5784 34.425 35.1026 34.9008C34.6267 35.3766 34.1509 35.6938 33.5165 35.8524C33.0407 36.011 32.4063 36.1696 31.1374 36.3282C29.71 36.3282 29.3928 36.3282 25.7449 36.3282C22.097 36.3282 21.7798 36.3282 20.3523 36.3282C19.0835 36.3282 18.4491 36.011 17.9732 35.8524C17.3388 35.5352 16.863 35.3766 16.3872 34.9008C15.9114 34.425 15.5942 33.9491 15.4356 33.3147C15.277 32.8389 15.1184 32.2045 14.9598 30.9357C14.9598 29.5082 14.9598 29.191 14.9598 25.5431C14.9598 21.8952 14.9598 21.578 14.9598 20.1505C14.9598 18.8817 15.277 18.2473 15.4356 17.7715C15.7528 17.137 15.9114 16.6612 16.3872 16.1854C16.863 15.7096 17.3388 15.3924 17.9732 15.2338C18.4491 15.0752 19.0835 14.9166 20.3523 14.758C21.7798 14.758 22.2556 14.758 25.7449 14.758ZM25.7449 12.3789C22.097 12.3789 21.7798 12.3789 20.3523 12.3789C18.9249 12.3789 17.9732 12.6961 17.1802 13.0133C16.3872 13.3305 15.5942 13.8063 14.8012 14.5994C14.0081 15.3924 13.6909 16.0268 13.2151 16.9784C12.8979 17.7715 12.7393 18.7231 12.5807 20.1505C12.5807 21.578 12.5807 22.0538 12.5807 25.5431C12.5807 29.191 12.5807 29.5082 12.5807 30.9357C12.5807 32.3631 12.8979 33.3147 13.2151 34.1078C13.5323 34.9008 14.0081 35.6938 14.8012 36.4868C15.5942 37.2798 16.2286 37.5971 17.1802 38.0729C17.9732 38.3901 18.9249 38.5487 20.3523 38.7073C21.7798 38.7073 22.2556 38.7073 25.7449 38.7073C29.2342 38.7073 29.71 38.7073 31.1374 38.7073C32.5649 38.7073 33.5165 38.3901 34.3095 38.0729C35.1026 37.7557 35.8956 37.2798 36.6886 36.4868C37.4816 35.6938 37.7988 35.0594 38.2747 34.1078C38.5919 33.3147 38.7505 32.3631 38.9091 30.9357C38.9091 29.5082 38.9091 29.0324 38.9091 25.5431C38.9091 22.0538 38.9091 21.578 38.9091 20.1505C38.9091 18.7231 38.5919 17.7715 38.2747 16.9784C37.9574 16.1854 37.4816 15.3924 36.6886 14.5994C35.8956 13.8063 35.2612 13.4891 34.3095 13.0133C33.5165 12.6961 32.5649 12.5375 31.1374 12.3789C29.71 12.3789 29.3928 12.3789 25.7449 12.3789Z" fill="white"/>
<path d="M25.7449 18.7231C21.9384 18.7231 18.9249 21.7366 18.9249 25.5431C18.9249 29.3496 21.9384 32.3631 25.7449 32.3631C29.5514 32.3631 32.5649 29.3496 32.5649 25.5431C32.5649 21.7366 29.5514 18.7231 25.7449 18.7231ZM25.7449 29.984C23.3658 29.984 21.3039 28.0808 21.3039 25.5431C21.3039 23.164 23.2072 21.1022 25.7449 21.1022C28.124 21.1022 30.1858 23.0054 30.1858 25.5431C30.1858 27.9222 28.124 29.984 25.7449 29.984Z" fill="white"/>
<path d="M32.7235 20.1505C33.5994 20.1505 34.3095 19.4404 34.3095 18.5645C34.3095 17.6885 33.5994 16.9784 32.7235 16.9784C31.8475 16.9784 31.1374 17.6885 31.1374 18.5645C31.1374 19.4404 31.8475 20.1505 32.7235 20.1505Z" fill="white"/>
</svg>
