<svg width="77" height="52" viewBox="0 0 77 52" fill="none" xmlns="http://www.w3.org/2000/svg">
	<path fill-rule="evenodd" clip-rule="evenodd"
		d="M20.882 1.07684C-6.70068 6.66223 -6.35441 45.947 21.3229 51.1796C45.002 55.6564 60.6567 26.427 44.0563 8.73489C38.2894 2.58838 28.8386 -0.534301 20.882 1.07684ZM46.7136 2.23026C46.7136 2.51995 47.9545 4.12501 49.4708 5.79849C59.4829 16.8461 59.4829 35.4149 49.4708 46.4625C45.9318 50.3675 45.9966 50.8564 49.7987 48.9229C64.9721 41.2063 68.5233 21.4469 57.0178 8.75162C54.5802 6.06157 46.7136 1.08292 46.7136 2.23026ZM60.9244 4.22157C66.6303 10.2426 69.5949 17.7334 69.5949 26.1305C69.5949 34.5276 66.6303 42.0184 60.9244 48.0394L58.5356 50.5599L60.7177 49.7372C81.3605 41.9507 81.3605 10.3103 60.7177 2.52375L58.5356 1.70107L60.9244 4.22157ZM34.4819 9.61915C43.7863 14.3925 47.1712 26.9098 41.5912 35.9068C31.6195 51.9863 7.05254 44.9388 7.05254 25.999C7.05254 11.8332 21.7225 3.07347 34.4819 9.61915ZM18.8952 17.5768C18.6297 20.3991 18.3453 23.5476 18.2629 24.5726C18.0966 26.6209 21.1131 28.0321 22.8369 26.7114C24.4897 25.4462 27.1736 26.392 27.6595 28.4115C28.8692 33.4373 25.3393 37.432 23.4608 33.1635C22.29 30.5039 17.7305 30.7016 17.7305 33.4122C17.7305 38.9626 25.9274 41.7994 30.6119 37.87C36.4993 32.9316 33.4073 20.9093 26.4582 21.7175C23.9344 22.0118 23.8322 21.9259 23.8322 19.5149V17.0065H28.4085H32.9847V14.7255V12.4445H26.1814H19.3772L18.8952 17.5768Z"
		fill="#2C2C2C" />
</svg>