<svg width="63" height="64" viewBox="0 0 63 64" fill="none" xmlns="http://www.w3.org/2000/svg">
	<path fill-rule="evenodd" clip-rule="evenodd"
		d="M24.1299 1.04814C2.16053 6.0298 -7.16405 32.9163 7.20054 49.862L7.8206 50.5935L5.2078 53.2345C2.05204 56.4244 1.77469 57.0039 2.82775 58.2077C3.40224 58.8644 3.84135 58.9654 16.4326 61.3345C17.9986 61.6292 22.2101 62.4388 25.3943 63.0574C28.8183 63.7227 29.3798 63.6467 30.0277 62.4302C30.3841 61.7611 30.3901 61.8208 29.507 57.2246C29.144 55.336 28.4287 51.5833 27.9173 48.8853C25.4348 35.7874 25.579 36.3873 24.786 35.8606C23.5287 35.0254 23.0602 35.2853 19.6714 38.6982C16.509 41.8831 16.8981 41.6395 16.2814 40.8196C12.8417 36.2467 12.0886 29.1836 14.4558 23.7004C15.572 21.1151 16.8302 19.4634 19.701 16.8149C21.8625 14.8208 19.4729 11.7413 17.2018 13.5941C7.87118 21.2065 6.19293 34.423 13.3684 43.7831L13.911 44.491L12.3229 46.0749L10.7349 47.6589L10.2531 47.1204C1.37614 37.1997 2.97803 19.7102 13.5872 10.7186C16.7008 8.07956 24.3184 4.28773 24.3127 5.3797C24.3094 5.99484 25.604 12.0454 25.8018 12.3394C26.8268 13.8626 29.1258 13.4043 29.4934 11.6035C29.539 11.3805 29.354 10.101 29.0237 8.35365C28.7241 6.76856 28.3402 4.74039 28.1707 3.84648C27.5901 0.785577 27.0224 0.392279 24.1299 1.04814ZM33.5377 1.04765C32.3813 1.74607 32.3567 2.1092 33.1745 6.40359C33.5521 8.38676 33.963 10.5611 34.0877 11.2356C34.2124 11.9101 34.6736 14.3384 35.1127 16.6317C35.5517 18.925 36.184 22.2362 36.5176 23.9899C37.2745 27.9672 37.3795 28.23 38.3638 28.6119C39.5499 29.0721 39.8807 28.8624 43.1278 25.5924C46.3185 22.3791 45.8988 22.602 46.6728 23.7083C51.7006 30.8945 50.5576 40.3518 43.8894 46.7391C42.1287 48.4257 41.97 48.7142 42.2632 49.6963C43.7449 54.6603 51.7921 46.2067 53.4403 37.9546C54.6705 31.7952 52.966 24.661 49.1956 20.1882L48.8853 19.8202L50.4856 18.2051L52.0859 16.59L52.5643 17.1627C64.3294 31.2489 57.1202 54.1159 39.4311 58.8204C38.4111 59.0917 38.6113 59.5028 37.8766 55.6295C37.107 51.5716 36.8056 51.0315 35.3111 51.0315C33.512 51.0315 33.0531 52.0912 33.5998 54.9834C33.8072 56.0812 34.1903 58.1107 34.451 59.4934C35.2949 63.9679 35.588 64.1291 40.4277 62.7812C61.1252 57.0169 69.3376 31.2006 55.7507 14.6122L54.994 13.6884L57.6026 11.0517C60.5213 8.10151 60.6557 7.89523 60.3572 6.82498C59.9939 5.52257 59.5855 5.40067 49.2377 3.50702C48.2966 3.33484 47.286 3.14107 42.2124 2.16022C33.8293 0.539689 34.2825 0.597819 33.5377 1.04765ZM41.9527 20.8578C41.9164 20.8942 41.8362 20.924 41.7746 20.924C41.7131 20.924 41.6587 20.9792 41.6539 21.0466C41.6405 21.2362 41.2826 21.5917 41.1343 21.5629C41.0614 21.5488 40.9992 21.6062 40.9961 21.6905C40.9931 21.7748 40.9356 21.8299 40.8684 21.8131C40.6967 21.7699 40.7821 21.5781 41.06 21.3826C41.3091 21.2075 41.3967 20.9083 41.1549 21.0583C41.0695 21.1114 41.0471 21.0921 41.0979 21.0096C41.144 20.9347 41.2625 20.9045 41.3611 20.9425C41.4597 20.9804 41.5404 20.9539 41.5404 20.8834C41.5404 20.8129 41.6481 20.7635 41.7795 20.7734C41.911 20.7833 41.9889 20.8212 41.9527 20.8578Z"
		fill="#2C2C2C" />
</svg>