<svg width="55" height="51" viewBox="0 0 55 51" fill="none" xmlns="http://www.w3.org/2000/svg">
<path d="M0.876831 25.5428C0.876831 39.558 12.2384 50.9195 26.2536 50.9195C40.2688 50.9195 51.6303 39.558 51.6303 25.5428C51.6303 11.5276 40.2688 0.166016 26.2536 0.166016C12.2384 0.166016 0.876831 11.5276 0.876831 25.5428Z" fill="#25D366"/>
<path fill-rule="evenodd" clip-rule="evenodd" d="M35.1424 16.5024C32.7633 14.1233 29.5912 12.8545 26.2605 12.8545C19.2819 12.8545 13.5721 18.5643 13.5721 25.5429C13.5721 27.7633 14.2066 29.9838 15.3168 31.8871L13.5721 38.2312L20.2336 36.4866C22.1368 37.4382 24.1987 38.0726 26.2605 38.0726C33.2391 38.0726 38.9489 32.3629 38.9489 25.3843C38.9489 22.0536 37.5215 18.8815 35.1424 16.5024ZM26.2605 36.0108C24.3573 36.0108 22.454 35.535 20.868 34.5833L20.5507 34.4247L16.5856 35.535L17.6959 31.7285L17.3786 31.2526C16.2684 29.508 15.7926 27.6047 15.7926 25.7015C15.7926 19.9917 20.5508 15.2336 26.2605 15.2336C29.1154 15.2336 31.6531 16.3438 33.715 18.2471C35.7768 20.3089 36.7284 22.8466 36.7284 25.7015C36.7284 31.2526 32.1289 36.0108 26.2605 36.0108ZM31.9703 28.0805C31.6531 27.9219 30.0671 27.1289 29.7498 27.1289C29.4326 26.9703 29.274 26.9703 29.1154 27.2875C28.9568 27.6047 28.3224 28.2392 28.1638 28.5564C28.0052 28.715 27.8465 28.715 27.5293 28.715C27.2121 28.5564 26.2605 28.2392 24.9917 27.1289C24.0401 26.3359 23.4056 25.2257 23.247 24.9085C23.0884 24.5912 23.2471 24.4326 23.4057 24.274C23.5643 24.1154 23.7228 23.9568 23.8815 23.7982C24.0401 23.6396 24.0401 23.481 24.1987 23.3224C24.3573 23.1638 24.1987 23.0052 24.1987 22.8466C24.1987 22.688 23.5643 21.1019 23.247 20.4675C23.0884 19.9917 22.7712 19.9917 22.6126 19.9917C22.454 19.9917 22.2954 19.9917 21.9782 19.9917C21.8196 19.9917 21.5024 19.9917 21.1852 20.3089C20.8679 20.6261 20.0749 21.4191 20.0749 23.0052C20.0749 24.5912 21.1852 26.0187 21.3438 26.3359C21.5024 26.4945 23.5642 29.8252 26.7363 31.094C29.4326 32.2043 29.9084 31.8871 30.5429 31.8871C31.1773 31.8871 32.4461 31.094 32.6047 30.4596C32.9219 29.6666 32.9219 29.0322 32.7633 29.0322C32.6047 28.2392 32.2875 28.2392 31.9703 28.0805Z" fill="white"/>
</svg>
